<svg width="630" height="182" viewBox="0 0 630 182" fill="none" xmlns="http://www.w3.org/2000/svg">
<rect width="630" height="182" fill="#1E1E1E"/>
<g id="Illustration ">
<rect width="8934" height="21772" transform="translate(-3645 -16451)" fill="white"/>
<g id="Hero">
<g id="Hero Corner Decor / Mobile / Default">
<g clip-path="url(#paint0_diamond_1_4_clip_path)" data-figma-skip-parse="true"><g transform="matrix(0.000196305 0.153507 -0.202115 0.000258464 509.02 28.5)"><rect x="0" y="0" width="1007.52" height="598.934" fill="url(#paint0_diamond_1_4)" opacity="1" shape-rendering="crispEdges"/><rect x="0" y="0" width="1007.52" height="598.934" transform="scale(1 -1)" fill="url(#paint0_diamond_1_4)" opacity="1" shape-rendering="crispEdges"/><rect x="0" y="0" width="1007.52" height="598.934" transform="scale(-1 1)" fill="url(#paint0_diamond_1_4)" opacity="1" shape-rendering="crispEdges"/><rect x="0" y="0" width="1007.52" height="598.934" transform="scale(-1)" fill="url(#paint0_diamond_1_4)" opacity="1" shape-rendering="crispEdges"/></g></g><path id="Hero Decor right" d="M629.035 63.75C629.035 110.556 630.02 203.5 543.52 177.5C457.02 151.5 495.52 132 431.02 100.5C392.02 75.5 364.52 9.5 423.52 0C482.614 0 629.035 16.9439 629.035 63.75Z" data-figma-gradient-fill="{&#34;type&#34;:&#34;GRADIENT_DIAMOND&#34;,&#34;stops&#34;:[{&#34;color&#34;:{&#34;r&#34;:0.78823530673980713,&#34;g&#34;:0.84313726425170898,&#34;b&#34;:0.58823531866073608,&#34;a&#34;:1.0},&#34;position&#34;:0.0},{&#34;color&#34;:{&#34;r&#34;:0.76971167325973511,&#34;g&#34;:0.84134614467620850,&#34;b&#34;:0.59460520744323730,&#34;a&#34;:1.0},&#34;position&#34;:0.42788460850715637},{&#34;color&#34;:{&#34;r&#34;:0.66927081346511841,&#34;g&#34;:0.750,&#34;b&#34;:0.52644228935241699,&#34;a&#34;:1.0},&#34;position&#34;:0.76442307233810425}],&#34;stopsVar&#34;:[{&#34;color&#34;:{&#34;r&#34;:0.78823530673980713,&#34;g&#34;:0.84313726425170898,&#34;b&#34;:0.58823531866073608,&#34;a&#34;:1.0},&#34;position&#34;:0.0},{&#34;color&#34;:{&#34;r&#34;:0.76971167325973511,&#34;g&#34;:0.84134614467620850,&#34;b&#34;:0.59460520744323730,&#34;a&#34;:1.0},&#34;position&#34;:0.42788460850715637},{&#34;color&#34;:{&#34;r&#34;:0.66927081346511841,&#34;g&#34;:0.750,&#34;b&#34;:0.52644228935241699,&#34;a&#34;:1.0},&#34;position&#34;:0.76442307233810425}],&#34;transform&#34;:{&#34;m00&#34;:0.39260938763618469,&#34;m01&#34;:-404.22946166992188,&#34;m02&#34;:710.93841552734375,&#34;m10&#34;:307.01419067382812,&#34;m11&#34;:0.51692819595336914,&#34;m12&#34;:-125.26555633544922},&#34;opacity&#34;:1.0,&#34;blendMode&#34;:&#34;NORMAL&#34;,&#34;visible&#34;:true}"/>
<g clip-path="url(#paint1_diamond_1_4_clip_path)" data-figma-skip-parse="true"><g transform="matrix(-0.000196305 0.153507 0.202115 0.000258464 120.016 28.5)"><rect x="0" y="0" width="1007.52" height="598.934" fill="url(#paint1_diamond_1_4)" opacity="1" shape-rendering="crispEdges"/><rect x="0" y="0" width="1007.52" height="598.934" transform="scale(1 -1)" fill="url(#paint1_diamond_1_4)" opacity="1" shape-rendering="crispEdges"/><rect x="0" y="0" width="1007.52" height="598.934" transform="scale(-1 1)" fill="url(#paint1_diamond_1_4)" opacity="1" shape-rendering="crispEdges"/><rect x="0" y="0" width="1007.52" height="598.934" transform="scale(-1)" fill="url(#paint1_diamond_1_4)" opacity="1" shape-rendering="crispEdges"/></g></g><path id="Hero Decor right_2" d="M0.000488281 63.75C0.000488281 110.556 -0.9841 203.5 85.5159 177.5C172.016 151.5 133.516 132 198.016 100.5C237.016 75.5 264.516 9.5 205.516 0C146.421 0 0.000488281 16.9439 0.000488281 63.75Z" data-figma-gradient-fill="{&#34;type&#34;:&#34;GRADIENT_DIAMOND&#34;,&#34;stops&#34;:[{&#34;color&#34;:{&#34;r&#34;:0.78769755363464355,&#34;g&#34;:0.84134614467620850,&#34;b&#34;:0.58651536703109741,&#34;a&#34;:1.0},&#34;position&#34;:0.0},{&#34;color&#34;:{&#34;r&#34;:0.76971167325973511,&#34;g&#34;:0.84134614467620850,&#34;b&#34;:0.59460520744323730,&#34;a&#34;:1.0},&#34;position&#34;:0.42788460850715637},{&#34;color&#34;:{&#34;r&#34;:0.66927081346511841,&#34;g&#34;:0.750,&#34;b&#34;:0.52644228935241699,&#34;a&#34;:1.0},&#34;position&#34;:0.76442307233810425}],&#34;stopsVar&#34;:[{&#34;color&#34;:{&#34;r&#34;:0.78769755363464355,&#34;g&#34;:0.84134614467620850,&#34;b&#34;:0.58651536703109741,&#34;a&#34;:1.0},&#34;position&#34;:0.0},{&#34;color&#34;:{&#34;r&#34;:0.76971167325973511,&#34;g&#34;:0.84134614467620850,&#34;b&#34;:0.59460520744323730,&#34;a&#34;:1.0},&#34;position&#34;:0.42788460850715637},{&#34;color&#34;:{&#34;r&#34;:0.66927081346511841,&#34;g&#34;:0.750,&#34;b&#34;:0.52644228935241699,&#34;a&#34;:1.0},&#34;position&#34;:0.76442307233810425}],&#34;transform&#34;:{&#34;m00&#34;:-0.39260938763618469,&#34;m01&#34;:404.22946166992188,&#34;m02&#34;:-81.902526855468750,&#34;m10&#34;:307.01419067382812,&#34;m11&#34;:0.51692819595336914,&#34;m12&#34;:-125.26555633544922},&#34;opacity&#34;:1.0,&#34;blendMode&#34;:&#34;NORMAL&#34;,&#34;visible&#34;:true}"/>
</g>
</g>
</g>
<defs>
<clipPath id="paint0_diamond_1_4_clip_path"><path id="Hero Decor right" d="M629.035 63.75C629.035 110.556 630.02 203.5 543.52 177.5C457.02 151.5 495.52 132 431.02 100.5C392.02 75.5 364.52 9.5 423.52 0C482.614 0 629.035 16.9439 629.035 63.75Z"/></clipPath><clipPath id="paint1_diamond_1_4_clip_path"><path id="Hero Decor right_2" d="M0.000488281 63.75C0.000488281 110.556 -0.9841 203.5 85.5159 177.5C172.016 151.5 133.516 132 198.016 100.5C237.016 75.5 264.516 9.5 205.516 0C146.421 0 0.000488281 16.9439 0.000488281 63.75Z"/></clipPath><linearGradient id="paint0_diamond_1_4" x1="0" y1="0" x2="500" y2="500" gradientUnits="userSpaceOnUse">
<stop stop-color="#C9D796"/>
<stop offset="0.427885" stop-color="#C4D798"/>
<stop offset="0.764423" stop-color="#ABBF86"/>
</linearGradient>
<linearGradient id="paint1_diamond_1_4" x1="0" y1="0" x2="500" y2="500" gradientUnits="userSpaceOnUse">
<stop stop-color="#C9D796"/>
<stop offset="0.427885" stop-color="#C4D798"/>
<stop offset="0.764423" stop-color="#ABBF86"/>
</linearGradient>
</defs>
</svg>
